#!OML:ASF F:\VICON\USERDATA\INSTALL\rory3\rory3.ASF
:FULLY-SPECIFIED
:DEGREES
206
root 1.96518 17.2685 34.727 -162.848 -48.8146 -172.394
lowerback -15.2442 1.07771 -0.872048
upperback -8.02518 0.710827 2.72792
thorax -0.00446275 0.10117 3.45661
lowerneck -11.0153 -3.75091 -2.21143
upperneck 35.0781 -9.96092 6.00573
head 14.3157 -4.71893 1.06877
rclavicle 5.58422e-014 2.54444e-014
rhumerus -40.3395 -15.0617 -70.908
rradius 18.7548
rwrist -1.03944
rhand 5.49344 5.9278
rfingers 7.12502
rthumb 30.8405 -21.5039
lclavicle 5.58422e-014 2.54444e-014
lhumerus -44.0288 17.218 73.3745
lradius 33.1183
lwrist 3.65564
lhand -7.28549 23.7284
lfingers 7.12502
lthumb 18.5962 52.8595
rfemur -15.9496 -6.52659 33.353
rtibia 41.6644
rfoot 34.4886 -28.0192
rtoes 31.8924
lfemur -38.3507 6.70534 -28.8408
ltibia 32.211
lfoot -44.0868 26.6716
ltoes 26.8917
207
root 1.96557 17.2745 34.7299 -162.923 -48.7425 -172.339
lowerback -15.5735 0.991376 -0.920897
upperback -7.46757 0.646456 2.82349
thorax 0.762269 0.0824462 3.5813
lowerneck -12.5719 -3.70306 -2.14073
upperneck 35.6021 -9.86164 5.85926
head 14.8984 -4.60069 0.96418
rclavicle -5.668e-014 4.96962e-015
rhumerus -40.3102 -14.6933 -71.8853
rradius 18.9404
rwrist 0.546574
rhand 5.46918 6.36358
rfingers 7.12502
rthumb 30.8174 -21.0725
lclavicle -5.668e-014 4.96962e-015
lhumerus -43.0616 17.9456 73.8004
lradius 32.6344
lwrist 2.94003
lhand -6.82 23.3513
lfingers 7.12502
lthumb 19.0439 52.439
rfemur -15.8852 -6.306 33.4211
rtibia 41.661
rfoot 34.271 -28.2888
rtoes 31.6487
lfemur -38.3321 6.68947 -28.78
ltibia 32.2702
lfoot -44.2576 26.6169
ltoes 27.101
208
root 1.96794 17.2749 34.7335 -162.922 -48.6326 -172.321
lowerback -15.4354 1.03727 -0.860238
upperback -7.5619 0.695392 2.77119
thorax 0.588408 0.104276 3.49683
lowerneck -12.5364 -3.63958 -1.41163
upperneck 35.7979 -9.79453 5.26241
head 14.8941 -4.55846 0.603266
rclavicle -1.57071e-014 -1.18277e-014
rhumerus -40.2752 -14.0641 -72.4673
rradius 19.0989
rwrist 0.0719578
rhand 1.85884 8.88764
rfingers 7.12502
rthumb 27.3696 -19.1449
lclavicle -1.57071e-014 -1.18277e-014
lhumerus -43.1102 18.0188 73.8975
lradius 32.1927
lwrist 2.40874
lhand -6.36129 22.85
lfingers 7.12502
lthumb 19.485 51.8937
rfemur -15.8984 -6.26985 33.4452
rtibia 41.7324
rfoot 33.7568 -28.6548
rtoes 31.9974
lfemur -38.3907 6.75793 -28.7986
ltibia 32.2934
lfoot -44.3208 26.6669
ltoes 27.1543
209
root 1.97428 17.2707 34.7441 -162.855 -48.3949 -172.255
lowerback -15.0256 0.982119 -0.702536
upperback -8.23411 0.547156 2.61868
thorax -0.325356 0.00675713 3.21865
lowerneck -11.2727 -3.26469 -0.655985
upperneck 36.2221 -9.61541 5.07302
head 14.7443 -4.50631 0.449915
rclavicle -1.00306e-013 -2.84262e-014
rhumerus -40.9433 -12.8499 -73.2864
rradius 19.33
rwrist -0.477599
rhand 2.70506 8.33103
rfingers 7.12502
rthumb 28.1787 -19.571
lclavicle -1.00306e-013 -2.84262e-014
lhumerus -44.3318 17.5996 73.4714
lradius 32.05
lwrist 2.50731
lhand -6.30184 22.7287
lfingers 7.12502
lthumb 19.5422 51.7666
rfemur -15.9871 -6.26761 33.4554
rtibia 41.6466
rfoot 33.6321 -28.7285
rtoes 31.8841
lfemur -38.5557 6.72056 -28.7823
ltibia 32.2449
lfoot -44.4935 26.8722
ltoes 27.132
210
root 1.97886 17.2682 34.7667 -162.648 -48.1067 -172.107
lowerback -15.4547 1.31988 -0.452411
upperback -7.70958 0.996568 2.64461
thorax 0.434973 0.235187 3.178
lowerneck -13.0461 -3.56704 -1.27356
upperneck 36.4466 -9.84944 5.17364
head 15.3177 -4.56093 0.506467
rclavicle -1.28104e-013 1.03368e-014
rhumerus -39.5469 -12.8509 -73.4165
rradius 19.3625
rwrist -1.07527
rhand 2.91201 8.05635
rfingers 7.12502
rthumb 28.3765 -19.8129
lclavicle -1.28104e-013 1.03368e-014
lhumerus -42.687 17.5261 74.9047
lradius 31.4751
lwrist 2.35105
lhand -5.88451 22.6103
lfingers 7.12502
lthumb 19.9434 51.607
rfemur -16.4486 -6.25943 33.4787
rtibia 41.7145
rfoot 33.9867 -28.2385
rtoes 31.2444
lfemur -38.9683 6.45578 -28.7015
ltibia 32.2124
lfoot -44.7192 27.258
ltoes 27.1099
211
root 1.9845 17.2908 34.735 -162.935 -48.2075 -172.205
lowerback -15.274 1.09551 -0.878225
upperback -7.52805 0.780641 2.7837
thorax 0.53278 0.150315 3.53088
lowerneck -13.6603 -3.39532 -2.54109
upperneck 37.2025 -9.87726 6.31204
head 16.0129 -4.58934 1.17261
rclavicle -2.93363e-015 7.55382e-015
rhumerus -39.2474 -12.1626 -73.8707
rradius 19.3319
rwrist -1.35246
rhand 2.24766 8.46383
rfingers 7.12502
rthumb 27.7414 -19.5094
lclavicle -2.93363e-015 7.55382e-015
lhumerus -42.5309 17.6347 75.2345
lradius 31.097
lwrist 2.25076
lhand -5.44226 22.6492
lfingers 7.12502
lthumb 20.3684 51.601
rfemur -15.8166 -5.72038 33.6475
rtibia 41.5601
rfoot 33.3341 -29.133
rtoes 31.9686
lfemur -38.4802 7.00754 -28.7581
ltibia 32.1495
lfoot -43.9637 27.2886
ltoes 26.2948
212
root 1.98134 17.2941 34.7703 -162.584 -47.891 -172.07
lowerback -15.4971 1.22521 -0.434696
upperback -7.62738 0.869427 2.72857
thorax 0.550548 0.172609 3.23791
lowerneck -13.739 -3.28625 -2.42898
upperneck 37.2814 -9.715 6.206
head 16.0456 -4.51734 1.13458
rclavicle -4.87131e-014 -3.79679e-014
rhumerus -38.9969 -11.6553 -74.2488
rradius 19.3094
rwrist -1.61243
rhand 3.0186 7.91177
rfingers 7.12502
rthumb 28.4783 -19.9405
lclavicle -4.87131e-014 -3.79679e-014
lhumerus -42.3975 17.8075 75.5242
lradius 30.8125
lwrist 1.98303
lhand -5.30792 22.8362
lfingers 7.12502
lthumb 20.4975 51.7742
rfemur -16.4296 -5.56665 33.6178
rtibia 41.5909
rfoot 33.6998 -28.64
rtoes 31.1486
lfemur -39.0077 6.39232 -28.6267
ltibia 32.1198
lfoot -44.7562 27.6974
ltoes 26.7052
213
root 1.98358 17.299 34.7662 -162.633 -47.8168 -172.039
lowerback -15.4565 1.21456 -0.424249
upperback -7.62573 0.857191 2.69149
thorax 0.532746 0.166509 3.19028
lowerneck -13.7482 -3.22472 -2.2231
upperneck 37.397 -9.69015 6.12279
head 16.0878 -4.4936 1.0655
rclavicle -6.8121e-014 -1.87852e-014
rhumerus -38.8799 -11.209 -74.6284
rradius 19.4204
rwrist -2.26947
rhand 5.48985 6.03775
rfingers 7.12502
rthumb 30.8371 -21.3946
lclavicle -6.8121e-014 -1.87852e-014
lhumerus -42.2784 17.8857 75.6629
lradius 30.4722
lwrist 1.46005
lhand -4.81914 22.7218
lfingers 7.12502
lthumb 20.9672 51.6085
rfemur -16.3038 -5.5436 33.665
rtibia 41.4508
rfoot 33.8048 -28.4356
rtoes 30.4893
lfemur -38.9334 6.48029 -28.5885
ltibia 32.0656
lfoot -44.8075 27.6352
ltoes 26.8475
214
root 1.98776 17.2931 34.7692 -162.591 -47.711 -172.083
lowerback -15.3746 1.26163 -0.443361
upperback -7.6883 0.923373 2.59343
thorax 0.421159 0.198603 3.10631
lowerneck -13.5589 -3.20947 -1.99019
upperneck 37.3841 -9.74764 6.09522
head 16.0244 -4.50198 1.0066
rclavicle -8.21384e-015 2.22639e-014
rhumerus -38.9742 -11.3611 -74.6365
rradius 19.6577
rwrist -2.93852
rhand 7.32437 4.7292
rfingers 7.12502
rthumb 32.5844 -22.3578
lclavicle -8.21384e-015 2.22639e-014
lhumerus -42.2977 18.0979 75.6007
lradius 30.1452
lwrist 0.551523
lhand -4.03446 22.3786
lfingers 7.12502
lthumb 21.7209 51.18
rfemur -16.2959 -5.89016 33.6169
rtibia 41.4873
rfoot 33.8557 -27.9832
rtoes 29.5676
lfemur -39.008 6.60534 -28.6736
ltibia 32.1216
lfoot -44.8055 27.5981
ltoes 27.1909
215
root 1.98977 17.2917 34.7772 -162.517 -47.6155 -172.152
lowerback -15.2881 1.28356 -0.420105
upperback -7.74184 0.951913 2.48044
thorax 0.320383 0.210674 2.97675
lowerneck -13.3895 -3.19321 -1.78659
upperneck 37.357 -9.81099 6.11506
head 15.9647 -4.51049 0.97159
rclavicle 8.52996e-014 2.79292e-014
rhumerus -39.0964 -11.0764 -74.9847
rradius 19.4238
rwrist -2.91473
rhand 5.74494 6.54137
rfingers 7.12502
rthumb 31.0803 -20.8448
lclavicle 8.52996e-014 2.79292e-014
lhumerus -42.3058 18.1915 75.6405
lradius 29.9451
lwrist -0.109595
lhand -3.4309 22.2096
lfingers 7.12502
lthumb 22.3004 50.9427
rfemur -16.1976 -5.86643 33.5815
rtibia 41.3251
rfoot 33.8001 -28.1124
rtoes 29.2907
lfemur -39.117 6.6166 -28.755
ltibia 32.2134
lfoot -44.8601 27.6027
ltoes 27.502
